<svg version="1.1" viewBox="0.0 0.0 100.0 100.0" fill="none" stroke="none" stroke-linecap="square" stroke-miterlimit="10" xmlns:xlink="http://www.w3.org/1999/xlink" xmlns="http://www.w3.org/2000/svg"><clipPath id="p.0"><path d="m0 0l100.0 0l0 100.0l-100.0 0l0 -100.0z" clip-rule="nonzero"/></clipPath><g clip-path="url(#p.0)"><path fill="#000000" fill-opacity="0.0" d="m0 0l100.0 0l0 100.0l-100.0 0z" fill-rule="evenodd"/><path fill="#0b9000" d="m2.0 50.0l0 0c0 -26.509668 21.490332 -48.0 48.0 -48.0l0 0c12.730392 0 24.939377 5.0571284 33.941124 14.058874c9.001747 9.001747 14.058876 21.210733 14.058876 33.941124l0 0c0 26.509666 -21.490334 48.0 -48.0 48.0l0 0c-26.509668 0 -48.0 -21.490334 -48.0 -48.0z" fill-rule="evenodd"/><path stroke="#48ac40" stroke-width="4.0" stroke-linejoin="round" stroke-linecap="butt" d="m2.0 50.0l0 0c0 -26.509668 21.490332 -48.0 48.0 -48.0l0 0c12.730392 0 24.939377 5.0571284 33.941124 14.058874c9.001747 9.001747 14.058876 21.210733 14.058876 33.941124l0 0c0 26.509666 -21.490334 48.0 -48.0 48.0l0 0c-26.509668 0 -48.0 -21.490334 -48.0 -48.0z" fill-rule="evenodd"/><path fill="#000000" fill-opacity="0.0" d="m15.550936 -10.677574l62.960632 0l0 116.34646l-62.960632 0z" fill-rule="evenodd"/><path fill="#48ac40" d="m49.113438 78.34253q-2.359375 0 -3.6875 -1.203125q-1.3125 -1.203125 -1.3125 -3.4375l0 -2.5625q-3.765625 -0.40625 -6.984375 -1.375q-3.21875 -0.984375 -5.187502 -2.625q-1.953125 -1.640625 -1.953125 -3.84375q0 -2.359375 1.515625 -3.59375q1.5312519 -1.25 3.890627 -1.25q1.0 0 2.1875 0.328125q1.203125 0.3125 2.5625 0.875q1.25 0.5625 2.640625 1.125q1.40625 0.5625 3.0 0.921875q1.609375 0.359375 3.453125 0.359375q2.796875 0 4.390625 -0.640625q1.609375 -0.640625 1.609375 -2.25q0 -0.921875 -0.984375 -1.515625q-0.984375 -0.59375 -2.828125 -1.046875q-1.828125 -0.46875 -4.5625 -0.90625q-4.875 -0.84375 -8.421875 -2.359375q-3.53125 -1.53125 -5.453125 -4.0625q-1.9218769 -2.546875 -1.9218769 -6.34375q0 -3.40625 1.8125019 -5.671875q1.828125 -2.28125 4.8125 -3.5625q2.984375 -1.28125 6.421875 -1.8125l0 -2.90625q0 -2.25 1.3125 -3.4375q1.328125 -1.203125 3.6875 -1.203125q2.359375 0 3.65625 1.203125q1.296875 1.1875 1.296875 3.4375l0 2.71875q3.28125 0.28125 6.09375 1.078125q2.828125 0.796875 4.562496 2.28125q1.75 1.46875 1.75 3.71875q0 2.203125 -1.53125 3.328125q-1.5156212 1.109375 -3.7499962 1.109375q-1.28125 0 -2.40625 -0.234375q-1.109375 -0.25 -2.28125 -0.6875q-1.1875 -0.515625 -2.890625 -1.015625q-1.703125 -0.5 -4.015625 -0.5q-1.0 0 -2.03125 0.109375q-1.015625 0.09375 -1.859375 0.359375q-0.84375 0.25 -1.34375 0.75q-0.5 0.5 -0.5 1.296875q0 0.875 1.0625 1.5q1.0625 0.625 2.875 1.0625q1.828125 0.4375 4.1875 0.84375q4.875 0.796875 8.5625 2.078125q3.6874962 1.28125 5.718746 3.609375q2.046875 2.3125 2.046875 6.1875q0 3.71875 -1.90625 6.296875q-1.90625 2.578125 -5.124996 4.109375q-3.21875 1.515625 -7.21875 2.03125l0 2.6875q0 2.234375 -1.296875 3.4375q-1.296875 1.203125 -3.65625 1.203125z" fill-rule="nonzero"/></g></svg>